<?xml version="1.0" encoding="UTF-8"?>
<svg width="336px" height="210px" viewBox="0 0 336 210" version="1.1" xmlns="http://www.w3.org/2000/svg" xmlns:xlink="http://www.w3.org/1999/xlink">
    <!-- Generator: Sketch 55.2 (78181) - https://sketchapp.com -->
    <title>completed</title>
    <desc>Created with Sketch.</desc>
    <defs>
        <linearGradient x1="50.0466667%" y1="98.7466885%" x2="50.0466667%" y2="63.9770799%" id="linearGradient-1">
            <stop stop-color="#008787" offset="0.4302823%"></stop>
            <stop stop-color="#005E5E" offset="99.91%"></stop>
        </linearGradient>
    </defs>
    <g id="Page-1" stroke="none" stroke-width="1" fill="none" fill-rule="evenodd">
        <g id="completed" fill-rule="nonzero">
            <ellipse id="Oval" fill="#EDEDF0" opacity="0.5" cx="165.886875" cy="198.410625" rx="73.52625" ry="11.563125"></ellipse>
            <g id="Group" opacity="0.5" transform="translate(0.000000, 40.375000)" fill="#EDEDF0">
                <g transform="translate(30.187500, 115.812500)">
                    <g id="Path" transform="translate(21.000000, 5.250000)">
                        <path d="M1.575,3.255 L91.546875,3.255 C92.26875,3.255 92.859375,2.664375 92.859375,1.9425 C92.859375,1.220625 92.26875,0.63 91.546875,0.63 L1.575,0.63 C0.853125,0.63 0.2625,1.220625 0.2625,1.9425 C0.2625,2.664375 0.853125,3.255 1.575,3.255 Z"></path>
                    </g>
                    <g id="Path" transform="translate(77.125000, 0.000000)">
                        <path d="M0.693125,1.8375 L23.268125,1.8375 C23.635625,1.8375 23.924375,1.54875 23.924375,1.18125 C23.924375,0.81375 23.635625,0.525 23.268125,0.525 L0.693125,0.525 C0.325625,0.525 0.036875,0.81375 0.036875,1.18125 C0.036875,1.54875 0.325625,1.8375 0.693125,1.8375 Z"></path>
                    </g>
                    <g id="Shape" transform="translate(0.000000, 12.812500)">
                        <path d="M0.525,0.89 C0.525,0.5225 0.81375,0.23375 1.18125,0.23375 L5.11875,0.23375 C5.48625,0.23375 5.775,0.5225 5.775,0.89 C5.775,1.2575 5.48625,1.54625 5.11875,1.54625 L1.18125,1.54625 C0.81375,1.54625 0.525,1.2575 0.525,0.89 Z M14.9625,0.89 C14.9625,0.5225 15.25125,0.23375 15.61875,0.23375 L31.36875,0.23375 C31.73625,0.23375 32.025,0.5225 32.025,0.89 C32.025,1.2575 31.73625,1.54625 31.36875,1.54625 L15.61875,1.54625 C15.25125,1.54625 14.9625,1.2575 14.9625,0.89 Z M42.525,0.89 C42.525,0.5225 42.81375,0.23375 43.18125,0.23375 L44.49375,0.23375 C44.86125,0.23375 45.15,0.5225 45.15,0.89 C45.15,1.2575 44.86125,1.54625 44.49375,1.54625 L43.18125,1.54625 C42.81375,1.54625 42.525,1.2575 42.525,0.89 Z M49.0875,0.89 C49.0875,0.5225 49.37625,0.23375 49.74375,0.23375 L53.68125,0.23375 C54.04875,0.23375 54.3375,0.5225 54.3375,0.89 C54.3375,1.2575 54.04875,1.54625 53.68125,1.54625 L49.74375,1.54625 C49.37625,1.54625 49.0875,1.2575 49.0875,0.89 Z M63.525,0.89 C63.525,0.5225 63.81375,0.23375 64.18125,0.23375 L79.93125,0.23375 C80.29875,0.23375 80.5875,0.5225 80.5875,0.89 C80.5875,1.2575 80.29875,1.54625 79.93125,1.54625 L64.18125,1.54625 C63.81375,1.54625 63.525,1.2575 63.525,0.89 Z"></path>
                    </g>
                </g>
                <g transform="translate(124.375000, 71.187500)">
                    <g id="Path" transform="translate(25.250000, 5.250000)">
                        <path d="M1.771875,3.163125 L147.039375,3.163125 C147.76125,3.163125 148.351875,2.5725 148.351875,1.850625 C148.351875,1.12875 147.76125,0.538125 147.039375,0.538125 L1.771875,0.538125 C1.05,0.538125 0.459375,1.12875 0.459375,1.850625 C0.459375,2.5725 1.05,3.163125 1.771875,3.163125 Z"></path>
                    </g>
                    <g id="Path" transform="translate(45.937500, 0.000000)">
                        <path d="M0.70625,1.850625 L37.14125,1.850625 C37.50875,1.850625 37.7975,1.561875 37.7975,1.194375 C37.7975,0.826875 37.50875,0.538125 37.14125,0.538125 L0.70625,0.538125 C0.33875,0.538125 0.05,0.826875 0.05,1.194375 C0.05,1.561875 0.351875,1.850625 0.70625,1.850625 Z"></path>
                    </g>
                    <g id="Shape" transform="translate(0.000000, 12.812500)">
                        <path d="M0.2075,0.666875 C0.2075,0.299375 0.49625,0.010625 0.86375,0.010625 L16.61375,0.010625 C16.98125,0.010625 17.27,0.299375 17.27,0.666875 C17.27,1.034375 16.98125,1.323125 16.61375,1.323125 L0.86375,1.323125 C0.49625,1.323125 0.2075,1.034375 0.2075,0.666875 Z M26.4575,0.666875 C26.4575,0.299375 26.74625,0.010625 27.11375,0.010625 L31.05125,0.010625 C31.41875,0.010625 31.7075,0.299375 31.7075,0.666875 C31.7075,1.034375 31.41875,1.323125 31.05125,1.323125 L27.11375,1.323125 C26.74625,1.323125 26.4575,1.034375 26.4575,0.666875 Z M35.645,0.666875 C35.645,0.299375 35.93375,0.010625 36.30125,0.010625 L37.61375,0.010625 C37.98125,0.010625 38.27,0.299375 38.27,0.666875 C38.27,1.034375 37.98125,1.323125 37.61375,1.323125 L36.30125,1.323125 C35.93375,1.323125 35.645,1.034375 35.645,0.666875 Z M48.77,0.666875 C48.77,0.299375 49.05875,0.010625 49.42625,0.010625 L65.17625,0.010625 C65.54375,0.010625 65.8325,0.299375 65.8325,0.666875 C65.8325,1.034375 65.54375,1.323125 65.17625,1.323125 L49.42625,1.323125 C49.05875,1.323125 48.77,1.034375 48.77,0.666875 Z M75.02,0.666875 C75.02,0.299375 75.30875,0.010625 75.67625,0.010625 L79.61375,0.010625 C79.98125,0.010625 80.27,0.299375 80.27,0.666875 C80.27,1.034375 79.98125,1.323125 79.61375,1.323125 L75.67625,1.323125 C75.30875,1.323125 75.02,1.034375 75.02,0.666875 Z M84.2075,0.666875 C84.2075,0.299375 84.49625,0.010625 84.86375,0.010625 L86.17625,0.010625 C86.54375,0.010625 86.8325,0.299375 86.8325,0.666875 C86.8325,1.034375 86.54375,1.323125 86.17625,1.323125 L84.86375,1.323125 C84.49625,1.323125 84.2075,1.034375 84.2075,0.666875 Z M97.3325,0.666875 C97.3325,0.299375 97.62125,0.010625 97.98875,0.010625 L113.73875,0.010625 C114.10625,0.010625 114.395,0.299375 114.395,0.666875 C114.395,1.034375 114.10625,1.323125 113.73875,1.323125 L97.98875,1.323125 C97.62125,1.323125 97.3325,1.034375 97.3325,0.666875 Z M123.5825,0.666875 C123.5825,0.299375 123.87125,0.010625 124.23875,0.010625 L128.17625,0.010625 C128.54375,0.010625 128.8325,0.299375 128.8325,0.666875 C128.8325,1.034375 128.54375,1.323125 128.17625,1.323125 L124.23875,1.323125 C123.87125,1.323125 123.5825,1.034375 123.5825,0.666875 Z M132.77,0.666875 C132.77,0.299375 133.05875,0.010625 133.42625,0.010625 L134.73875,0.010625 C135.10625,0.010625 135.395,0.299375 135.395,0.666875 C135.395,1.034375 135.10625,1.323125 134.73875,1.323125 L133.42625,1.323125 C133.05875,1.323125 132.77,1.034375 132.77,0.666875 Z M145.895,0.666875 C145.895,0.299375 146.18375,0.010625 146.55125,0.010625 L162.30125,0.010625 C162.66875,0.010625 162.9575,0.299375 162.9575,0.666875 C162.9575,1.034375 162.66875,1.323125 162.30125,1.323125 L146.55125,1.323125 C146.18375,1.323125 145.895,1.034375 145.895,0.666875 Z M172.145,0.666875 C172.145,0.299375 172.43375,0.010625 172.80125,0.010625 L176.73875,0.010625 C177.10625,0.010625 177.395,0.299375 177.395,0.666875 C177.395,1.034375 177.10625,1.323125 176.73875,1.323125 L172.80125,1.323125 C172.43375,1.323125 172.145,1.034375 172.145,0.666875 Z M181.3325,0.666875 C181.3325,0.299375 181.62125,0.010625 181.98875,0.010625 L183.30125,0.010625 C183.66875,0.010625 183.9575,0.299375 183.9575,0.666875 C183.9575,1.034375 183.66875,1.323125 183.30125,1.323125 L181.98875,1.323125 C181.62125,1.323125 181.3325,1.034375 181.3325,0.666875 Z M194.4575,0.666875 C194.4575,0.299375 194.74625,0.010625 195.11375,0.010625 L210.86375,0.010625 C211.23125,0.010625 211.52,0.299375 211.52,0.666875 C211.52,1.034375 211.23125,1.323125 210.86375,1.323125 L195.11375,1.323125 C194.74625,1.323125 194.4575,1.034375 194.4575,0.666875 Z"></path>
                    </g>
                </g>
                <g>
                    <path d="M2.139375,32.2325 L35.503125,32.2325 C35.503125,32.2325 25.06875,8.89625 47.22375,5.8775 C66.99,3.186875 74.799375,23.504375 74.799375,23.504375 C74.799375,23.504375 77.14875,11.78375 88.895625,14.028125 C100.485,16.233125 109.0425,34.88375 109.0425,34.88375 L138.10125,34.88375" id="Path"></path>
                    <g id="Shape" transform="translate(1.312500, 0.000000)">
                        <path d="M137.36625,29.37125 L128.7825,29.37125 C128.349375,29.37125 128.008125,29.03 128.008125,28.596875 C128.008125,28.16375 128.349375,27.8225 128.7825,27.8225 L137.36625,27.8225 C137.799375,27.8225 138.140625,28.16375 138.140625,28.596875 C138.140625,29.03 137.799375,29.37125 137.36625,29.37125 Z M114.883125,29.37125 L113.334375,29.37125 C112.90125,29.37125 112.56,29.03 112.56,28.596875 C112.56,28.16375 112.90125,27.8225 113.334375,27.8225 L114.883125,27.8225 C115.31625,27.8225 115.6575,28.16375 115.6575,28.596875 C115.6575,29.03 115.303125,29.37125 114.883125,29.37125 Z M34.755,28.439375 L32.274375,28.439375 C31.84125,28.439375 31.5,28.098125 31.5,27.665 C31.5,27.231875 31.84125,26.890625 32.274375,26.890625 L33.613125,26.890625 C33.508125,26.615 33.39,26.27375 33.25875,25.893125 C33.1275,25.48625 33.3375,25.053125 33.744375,24.90875 C34.15125,24.7775 34.584375,24.9875 34.72875,25.394375 C35.135625,26.58875 35.46375,27.32375 35.46375,27.336875 C35.56875,27.573125 35.5425,27.84875 35.41125,28.071875 C35.266875,28.308125 35.0175,28.439375 34.755,28.439375 Z M19.92375,28.439375 L1.39125,28.439375 C0.958125,28.439375 0.616875,28.098125 0.616875,27.665 C0.616875,27.231875 0.958125,26.890625 1.39125,26.890625 L19.92375,26.890625 C20.356875,26.890625 20.698125,27.231875 20.698125,27.665 C20.698125,28.098125 20.34375,28.439375 19.92375,28.439375 Z M107.769375,28.360625 C107.49375,28.360625 107.23125,28.21625 107.1,27.966875 C106.60125,27.0875 105.7875,25.69625 104.698125,24.06875 C104.461875,23.714375 104.55375,23.22875 104.908125,22.9925 C105.2625,22.75625 105.748125,22.848125 105.984375,23.2025 C107.1,24.869375 107.94,26.3 108.451875,27.205625 C108.661875,27.573125 108.530625,28.045625 108.15,28.255625 C108.01875,28.32125 107.8875,28.360625 107.769375,28.360625 Z M32.55,20.42 C32.169375,20.42 31.84125,20.144375 31.78875,19.750625 C31.71,19.23875 31.6575,18.700625 31.618125,18.1625 C31.57875,17.7425 31.906875,17.361875 32.326875,17.335625 C32.773125,17.309375 33.1275,17.61125 33.15375,18.044375 C33.193125,18.55625 33.245625,19.055 33.324375,19.540625 C33.39,19.960625 33.088125,20.354375 32.668125,20.406875 C32.62875,20.42 32.589375,20.42 32.55,20.42 Z M72.778125,17.020625 C72.5025,17.020625 72.24,16.87625 72.095625,16.61375 C71.8725,16.206875 71.623125,15.760625 71.3475,15.30125 C71.124375,14.93375 71.2425,14.46125 71.61,14.238125 C71.9775,14.015 72.45,14.133125 72.673125,14.500625 C72.961875,14.98625 73.224375,15.445625 73.460625,15.87875 C73.6575,16.259375 73.52625,16.71875 73.145625,16.92875 C73.0275,16.994375 72.89625,17.020625 72.778125,17.020625 Z M97.295625,15.051875 C97.111875,15.051875 96.94125,14.98625 96.796875,14.868125 C93.84375,12.335 90.90375,10.773125 88.029375,10.221875 C85.2075,9.68375 82.71375,9.959375 80.64,11.0225 C80.259375,11.219375 79.8,11.061875 79.603125,10.694375 C79.40625,10.31375 79.550625,9.854375 79.93125,9.6575 C82.306875,8.42375 85.155,8.10875 88.318125,8.7125 C91.455,9.31625 94.644375,10.983125 97.8075,13.7 C98.135625,13.975625 98.161875,14.46125 97.88625,14.789375 C97.715625,14.96 97.505625,15.051875 97.295625,15.051875 Z M68.394375,10.668125 C68.184375,10.668125 67.96125,10.57625 67.816875,10.405625 C66.80625,9.2375 65.716875,8.174375 64.60125,7.2425 C64.273125,6.966875 64.23375,6.48125 64.509375,6.153125 C64.785,5.825 65.270625,5.785625 65.59875,6.06125 C66.78,7.045625 67.921875,8.174375 68.985,9.395 C69.260625,9.723125 69.234375,10.20875 68.90625,10.484375 C68.74875,10.6025 68.565,10.668125 68.394375,10.668125 Z M36.553125,6.16625 C36.343125,6.16625 36.133125,6.074375 35.975625,5.916875 C35.686875,5.601875 35.713125,5.11625 36.028125,4.8275 C38.495625,2.59625 41.97375,1.1525 46.370625,0.561875 C49.06125,0.194375 51.699375,0.23375 54.193125,0.666875 C54.613125,0.745625 54.88875,1.139375 54.823125,1.559375 C54.744375,1.979375 54.350625,2.268125 53.930625,2.189375 C51.594375,1.7825 49.11375,1.75625 46.580625,2.0975 C42.49875,2.661875 39.29625,3.96125 37.065,5.9825 C36.920625,6.100625 36.736875,6.16625 36.553125,6.16625 Z"></path>
                    </g>
                    <g id="Path" transform="translate(0.000000, 31.812500)">
                        <path d="M139.636875,3.49125 L2.12625,3.49125 C1.273125,3.49125 0.5775,2.795625 0.5775,1.9425 C0.5775,1.089375 1.273125,0.39375 2.12625,0.39375 L139.636875,0.39375 C140.49,0.39375 141.185625,1.089375 141.185625,1.9425 C141.185625,2.795625 140.49,3.49125 139.636875,3.49125 Z"></path>
                    </g>
                </g>
                <g transform="translate(217.875000, 1.312500)">
                    <path d="M2.034375,18.359375 L20.65875,18.359375 C20.65875,18.359375 14.83125,5.339375 27.195,3.659375 C38.22,2.163125 42.590625,13.49 42.590625,13.49 C42.590625,13.49 43.903125,6.95375 50.465625,8.200625 C56.93625,9.434375 61.71375,19.8425 61.71375,19.8425 L77.923125,19.8425" id="Path"></path>
                    <g id="Shape" transform="translate(1.312500, 0.000000)">
                        <path d="M19.884375,16.2725 L1.28625,16.2725 C0.853125,16.2725 0.511875,15.93125 0.511875,15.498125 C0.511875,15.065 0.853125,14.72375 1.28625,14.72375 L19.884375,14.72375 C20.3175,14.72375 20.65875,15.065 20.65875,15.498125 C20.65875,15.93125 20.3175,16.2725 19.884375,16.2725 Z M77.175,16.023125 L76.453125,16.023125 C76.02,16.023125 75.67875,15.681875 75.67875,15.24875 C75.67875,14.815625 76.02,14.474375 76.453125,14.474375 L77.175,14.474375 C77.608125,14.474375 77.949375,14.815625 77.949375,15.24875 C77.949375,15.681875 77.608125,16.023125 77.175,16.023125 Z M70.258125,16.023125 L65.611875,16.023125 C65.17875,16.023125 64.8375,15.681875 64.8375,15.24875 C64.8375,14.815625 65.17875,14.474375 65.611875,14.474375 L70.258125,14.474375 C70.69125,14.474375 71.0325,14.815625 71.0325,15.24875 C71.0325,15.681875 70.69125,16.023125 70.258125,16.023125 Z M41.855625,11.39 C41.540625,11.39 41.251875,11.18 41.13375,10.89125 L41.015625,10.615625 C40.858125,10.26125 40.989375,9.84125 41.3175,9.644375 C42.039375,7.47875 44.07375,4.394375 48.129375,4.394375 C48.680625,4.394375 49.27125,4.446875 49.875,4.565 C52.185,4.998125 54.508125,6.35 56.791875,8.555 C57.09375,8.856875 57.106875,9.3425 56.805,9.644375 C56.503125,9.959375 56.0175,9.959375 55.715625,9.6575 C53.655,7.6625 51.594375,6.455 49.58625,6.074375 C49.074375,5.9825 48.58875,5.93 48.129375,5.93 C43.666875,5.93 42.65625,10.563125 42.616875,10.76 C42.538125,11.140625 42.223125,11.39 41.855625,11.39 Z M20.29125,4.473125 C20.1075,4.473125 19.936875,4.4075 19.7925,4.289375 C19.464375,4.01375 19.425,3.528125 19.700625,3.2 C20.724375,1.9925 22.155,1.1 23.953125,0.535625 C24.36,0.404375 24.793125,0.640625 24.924375,1.0475 C25.055625,1.454375 24.819375,1.8875 24.4125,2.01875 C22.903125,2.49125 21.721875,3.22625 20.881875,4.1975 C20.7375,4.38125 20.514375,4.473125 20.29125,4.473125 Z M31.828125,1.874375 C31.7625,1.874375 31.696875,1.86125 31.618125,1.848125 C31.15875,1.73 30.68625,1.625 30.200625,1.559375 C29.780625,1.49375 29.47875,1.1 29.544375,0.68 C29.61,0.26 30.00375,-0.015625 30.42375,0.02375 C30.975,0.1025 31.513125,0.220625 32.025,0.351875 C32.431875,0.47 32.68125,0.89 32.57625,1.296875 C32.484375,1.638125 32.169375,1.874375 31.828125,1.874375 Z"></path>
                    </g>
                    <g id="Path" transform="translate(0.000000, 17.375000)">
                        <path d="M79.1175,4.095 L2.375625,4.095 C1.5225,4.095 0.826875,3.399375 0.826875,2.54625 C0.826875,1.693125 1.5225,0.9975 2.375625,0.9975 L79.1175,0.9975 C79.970625,0.9975 80.66625,1.693125 80.66625,2.54625 C80.66625,3.399375 79.970625,4.095 79.1175,4.095 Z"></path>
                    </g>
                </g>
            </g>
            <path d="M199.014375,201.705 L133.363125,201.980743 C127.995,202.006875 123.61125,197.6625 123.598125,192.294375 L123.230507,102.08625 C123.204375,96.705 127.561875,92.32125 132.943125,92.295 L173.8275,92.1242487 C176.413125,92.11125 178.89375,93.121875 180.718125,94.94625 L205.56375,119.51625 C207.40125,121.340625 208.45125,123.82125 208.464375,126.406875 L208.74003,191.91375 C208.753125,197.295 204.40875,201.67875 199.014375,201.705 Z" id="Path" fill="#00B86E"></path>
            <g id="Group" transform="translate(91.562500, 0.000000)">
                <path d="M126.089375,21.105 C115.851875,11.1825 103.23875,4.580625 89.58875,1.75875 C98.015,5.210625 105.785,11.52375 112.26875,20.356875 C122.598125,34.426875 128.504375,53.26125 128.898125,73.42125 C128.924375,74.655 128.59625,75.83625 127.9925,76.715625 C127.835,76.951875 127.65125,77.14875 127.4675,77.3325 L144.254375,77.188125 C145.44875,77.175 146.590625,76.689375 147.4175,75.83625 C148.244375,74.983125 148.70375,73.828125 148.664375,72.63375 C148.191875,53.038125 140.1725,34.741875 126.089375,21.105 Z" id="Path" fill="#B9486A"></path>
                <path d="M20.42,74.379375 C20.459375,54.2325 26.0375,35.28 36.1175,21.039375 C42.60125,11.878125 50.463125,5.355 59.06,1.81125 C45.055625,4.75125 32.193125,11.68125 21.876875,22.036875 C8.03,35.91 0.33875,54.3375 0.207233693,73.933125 C0.194375,75.1275 0.666875,76.269375 1.52,77.1225 C2.36,77.9625 3.515,78.435 4.709375,78.4221413 L21.929375,78.264375 C21.7325,78.09375 21.561875,77.896875 21.39125,77.660625 C20.774375,76.78125 20.42,75.6 20.42,74.379375 Z" id="Path" fill="#F97A8E"></path>
                <path d="M128.898125,73.42125 C128.504375,53.274375 122.585,34.426875 112.26875,20.356875 C105.785,11.52375 98.015,5.210625 89.58875,1.75875 C85.296875,0.879375 80.9,0.3675 76.450625,0.249375 C81.2675,2.52 85.75625,9.68625 89.365625,21 C93.801875,34.925625 96.400625,53.52375 96.663125,73.395 C96.67625,74.6025 96.545,75.770625 96.295625,76.636875 C96.1775,77.056875 96.033125,77.385 95.875625,77.608125 L127.480625,77.3325 C127.664375,77.14875 127.848125,76.951875 128.005625,76.715625 C128.59625,75.83625 128.924375,74.655 128.898125,73.42125 Z" id="Path" fill="#D61E46"></path>
                <path d="M74.67875,111.22125 C71.410625,111.22125 68.7725,108.583125 68.7725,105.315 L68.7725,28.940625 C68.7725,25.6725 71.410625,23.034375 74.67875,23.034375 C77.946875,23.034375 80.585,25.6725 80.585,28.940625 L80.585,105.315 C80.585,108.57 77.946875,111.22125 74.67875,111.22125 Z" id="Path" fill="url(#linearGradient-1)"></path>
                <path d="M51.185,77.030625 C50.9225,76.164375 50.765,74.99625 50.765,73.78875 C50.68625,53.9175 52.94375,35.266875 57.14375,21.275625 C60.53,9.988125 64.848125,2.7825 69.573125,0.3675 C66.01625,0.60375 62.49875,1.07625 59.06,1.798125 C50.463125,5.341875 42.588125,11.878125 36.1175,21.02625 C26.0375,35.266875 20.4725,54.219375 20.42,74.36625 C20.42,75.6 20.76125,76.78125 21.378125,77.6475 C21.54875,77.88375 21.719375,78.080625 21.91625,78.25125 L51.618125,77.98875 C51.47375,77.77875 51.31625,77.450625 51.185,77.030625 Z" id="Path" fill="#F74F69"></path>
                <path d="M69.573125,0.3675 C64.848125,2.7825 60.516875,9.988125 57.14375,21.275625 C52.956875,35.266875 50.68625,53.9175 50.765,73.78875 C50.765,74.99625 50.9225,76.164375 51.185,77.030625 C51.31625,77.450625 51.460625,77.765625 51.63125,78.001875 L95.8625,77.608125 C96.02,77.371875 96.164375,77.056875 96.2825,76.636875 C96.531875,75.770625 96.663125,74.6025 96.65,73.395 C96.374375,53.52375 93.78875,34.925625 89.3525,21 C85.743125,9.68625 81.254375,2.52 76.4375,0.249375 C75.558125,0.223125 74.67875,0.196875 73.78625,0.21 C72.381875,0.223125 70.9775,0.28875 69.573125,0.3675 Z" id="Path" fill="#F52243"></path>
            </g>
            <path d="M160.88625,175.966875 C159.166875,175.966875 157.513125,175.284375 156.2925,174.06375 L136.78875,154.56 C134.2425,152.01375 134.2425,147.905625 136.78875,145.359375 C139.335,142.813125 143.443125,142.813125 145.989375,145.359375 L160.02,159.39 L184.681875,124.280625 C186.7425,121.340625 190.785,120.61875 193.738125,122.679375 C196.678125,124.74 197.4,128.795625 195.339375,131.735625 L166.24125,173.1975 C165.13875,174.7725 163.393125,175.783125 161.476875,175.940625 C161.266875,175.95375 161.083125,175.966875 160.88625,175.966875 Z" id="Path" fill="#FFFFFF"></path>
        </g>
    </g>
</svg>