<?xml version="1.0" encoding="UTF-8"?>
<svg width="532px" height="361px" viewBox="0 0 532 361" version="1.1" xmlns="http://www.w3.org/2000/svg" xmlns:xlink="http://www.w3.org/1999/xlink">
    <!-- Generator: Sketch 55.2 (78181) - https://sketchapp.com -->
    <title>intro</title>
    <desc>Created with Sketch.</desc>
    <defs>
        <path d="M43.8250825,56 C43.339934,54.9494949 42.4909241,54.1414141 41.3993399,53.7373737 C40.3077558,53.3333333 39.1353135,53.3737374 38.0841584,53.8383838 L24.459571,60 L44.5123762,6.80808081 C45.3613861,4.56565657 44.2293729,2.08080808 41.9855611,1.23232323 C39.7417492,0.383838384 37.255363,1.51515152 36.4063531,3.75757576 L16.3535479,56.9494949 L10.1881188,43.3333333 C9.7029703,42.2828283 8.8539604,41.4747475 7.76237624,41.0707071 C6.67079208,40.6666667 5.49834983,40.7070707 4.44719472,41.1717172 C3.3960396,41.6565657 2.58745875,42.5050505 2.18316832,43.5959596 C1.77887789,44.6868687 1.81930693,45.8585859 2.28424092,46.9090909 L12.755363,70.040404 C13.2405116,71.0909091 14.0895215,71.8989899 15.1811056,72.3030303 C16.2726898,72.7070707 17.445132,72.6666667 18.4962871,72.2020202 L41.6419142,61.7373737 C42.6930693,61.2525253 43.5016502,60.4040404 43.9059406,59.3131313 C44.3304455,58.2424242 44.2900165,57.0707071 43.8250825,56 Z" id="path-1"></path>
        <linearGradient x1="50.0199867%" y1="100.006902%" x2="50.0199867%" y2="0.0149539877%" id="linearGradient-3">
            <stop stop-color="#0A5CC7" offset="0%"></stop>
            <stop stop-color="#0A5CC7" offset="0%"></stop>
            <stop stop-color="#83219D" offset="100%"></stop>
            <stop stop-color="#83219D" offset="100%"></stop>
        </linearGradient>
        <linearGradient x1="46.0108852%" y1="-12.7475447%" x2="51.2116497%" y2="70.587828%" id="linearGradient-4">
            <stop stop-color="#FFF361" offset="0%"></stop>
            <stop stop-color="#FFA80A" offset="100%"></stop>
        </linearGradient>
        <path d="M90.5408416,119.353535 C89.509901,117.090909 87.6703795,115.373737 85.3659241,114.505051 C83.0412541,113.636364 80.5144389,113.717172 78.2706271,114.727273 L49.0808581,127.939394 L92.0569307,13.9393939 C93.8560231,9.15151515 91.4302805,3.7979798 86.6394389,1.97979798 C81.8485974,0.181818182 76.4917492,2.60606061 74.6724422,7.39393939 L31.6963696,121.393939 L18.4760726,92.2222222 C17.445132,89.959596 15.6056106,88.2424242 13.3011551,87.3737374 C10.9764851,86.5050505 8.44966997,86.5858586 6.20585809,87.5959596 C3.94183168,88.6262626 2.22359736,90.4646465 1.35437294,92.7676768 C0.485148515,95.0909091 0.566006601,97.6161616 1.57673267,99.8585859 L24.035066,149.434343 C25.0660066,151.69697 26.9055281,153.414141 29.2099835,154.282828 C31.5346535,155.151515 34.0614686,155.070707 36.3052805,154.060606 L85.9117162,131.616162 C88.1757426,130.585859 89.8939769,128.747475 90.7632013,126.444444 C91.6324257,124.141414 91.5515677,121.616162 90.5408416,119.353535 Z" id="path-5"></path>
        <linearGradient x1="49.9906745%" y1="100%" x2="49.9906745%" y2="-0.00751476114%" id="linearGradient-7">
            <stop stop-color="#0A5CC7" offset="0%"></stop>
            <stop stop-color="#0A5CC7" offset="0%"></stop>
            <stop stop-color="#83219D" offset="100%"></stop>
            <stop stop-color="#83219D" offset="100%"></stop>
        </linearGradient>
        <path d="M21.8923267,28.3434343 C21.6497525,27.8181818 21.2252475,27.4141414 20.69967,27.2121212 C20.1538779,27.010101 19.5676568,27.030303 19.0622937,27.2727273 L12.290429,30.3434343 L22.2561881,3.91919192 C22.6806931,2.80808081 22.1146865,1.57575758 21.0028878,1.15151515 C19.8910891,0.727272727 18.6580033,1.29292929 18.2334983,2.4040404 L8.26773927,28.8282828 L5.19513201,22.0606061 C4.95255776,21.5353535 4.52805281,21.1313131 4.00247525,20.9292929 C3.45668317,20.7272727 2.87046205,20.7474747 2.36509901,20.989899 C1.83952145,21.2323232 1.43523102,21.6565657 1.23308581,22.1818182 C1.03094059,22.7272727 1.05115512,23.3131313 1.29372937,23.8181818 L6.50907591,35.3131313 C6.75165017,35.8383838 7.17615512,36.2424242 7.70173267,36.4444444 C8.22731023,36.6464646 8.83374587,36.6262626 9.33910891,36.3838384 L20.8411716,31.1717172 C21.3667492,30.9292929 21.7710396,30.5050505 21.9731848,29.979798 C22.134901,29.4545455 22.1146865,28.8686869 21.8923267,28.3434343 Z" id="path-8"></path>
        <linearGradient x1="49.9463807%" y1="99.9845679%" x2="49.9463807%" y2="-0.00231481481%" id="linearGradient-10">
            <stop stop-color="#0A5CC7" offset="0%"></stop>
            <stop stop-color="#0A5CC7" offset="0%"></stop>
            <stop stop-color="#83219D" offset="100%"></stop>
            <stop stop-color="#83219D" offset="100%"></stop>
        </linearGradient>
        <path d="M47.7871287,62.8686869 C47.2413366,61.6767677 46.2710396,60.7676768 45.0581683,60.3232323 C43.845297,59.8585859 42.5111386,59.8989899 41.3184818,60.4444444 L25.9554455,67.3939394 L48.5552805,7.43434343 C49.505363,4.90909091 48.2318482,2.1010101 45.705033,1.15151515 C43.1782178,0.202020202 40.3683993,1.47474747 39.4183168,4 L16.8184818,63.959596 L9.86468647,48.6060606 C9.31889439,47.4141414 8.34859736,46.5050505 7.13572607,46.0606061 C5.92285479,45.5959596 4.58869637,45.6363636 3.3960396,46.1818182 C2.20338284,46.7272727 1.29372937,47.6969697 0.849009901,48.9090909 C0.404290429,50.1212121 0.42450495,51.4545455 0.97029703,52.6464646 L12.7755776,78.7272727 C13.3213696,79.9191919 14.2916667,80.8282828 15.504538,81.2727273 C16.7174092,81.7373737 18.0515677,81.6969697 19.2442244,81.1515152 L45.3411716,69.3535354 C46.5338284,68.8080808 47.4434818,67.8383838 47.8882013,66.6262626 C48.3733498,65.3737374 48.3329208,64.040404 47.7871287,62.8686869 Z" id="path-11"></path>
        <linearGradient x1="49.9840426%" y1="99.9863946%" x2="49.9840426%" y2="-0.00544217687%" id="linearGradient-13">
            <stop stop-color="#0A5CC7" offset="0%"></stop>
            <stop stop-color="#0A5CC7" offset="0%"></stop>
            <stop stop-color="#83219D" offset="100%"></stop>
            <stop stop-color="#83219D" offset="100%"></stop>
        </linearGradient>
    </defs>
    <g id="Page-1" stroke="none" stroke-width="1" fill="none" fill-rule="evenodd">
        <g id="intro" transform="translate(-2.000000, -2.000000)">
            <g id="Group" transform="translate(110.812570, 128.204848)" fill="#EDEDF0" fill-rule="nonzero" opacity="0.5">
                <g>
                    <path d="M2.97153465,42.1818182 L46.0688944,42.2020202 C46.0688944,42.2020202 32.5858086,12.0808081 61.2297855,8.18181818 C86.7607261,4.70707071 96.8477723,30.9494949 96.8477723,30.9494949 C96.8477723,30.9494949 99.8799505,15.8181818 115.061056,18.7272727 C130.040017,21.5757576 141.077145,45.6565657 141.077145,45.6565657 L178.615512,45.6565657" id="Path"></path>
                    <path d="M179.343234,38.5656566 L171.237211,38.5656566 C170.671205,38.5656566 170.226485,38.1212121 170.226485,37.5555556 C170.226485,36.989899 170.671205,36.5454545 171.237211,36.5454545 L179.343234,36.5454545 C179.909241,36.5454545 180.35396,36.989899 180.35396,37.5555556 C180.35396,38.1010101 179.909241,38.5656566 179.343234,38.5656566 Z M153.044142,38.5454545 L151.02269,38.5454545 C150.456683,38.5454545 150.011964,38.1010101 150.011964,37.5353535 C150.011964,36.969697 150.456683,36.5252525 151.02269,36.5252525 L153.044142,36.5252525 C153.610149,36.5252525 154.054868,36.969697 154.054868,37.5353535 C154.054868,38.1010101 153.610149,38.5454545 153.044142,38.5454545 Z M142.936881,38.5454545 L141.804868,38.5454545 C141.420792,38.5454545 141.077145,38.3232323 140.895215,37.979798 C140.672855,37.5555556 139.844059,35.979798 138.469472,33.7777778 C138.166254,33.3131313 138.32797,32.6868687 138.792904,32.3838384 C139.257838,32.0808081 139.884488,32.2424242 140.187706,32.7070707 C141.259076,34.4242424 142.007013,35.7777778 142.411304,36.5252525 L142.936881,36.5252525 C143.502888,36.5252525 143.947607,36.969697 143.947607,37.5353535 C143.947607,38.1010101 143.502888,38.5454545 142.936881,38.5454545 Z M46.7966172,37.3131313 L44.1283003,37.3131313 C43.5622937,37.3131313 43.1175743,36.8686869 43.1175743,36.3030303 C43.1175743,35.7373737 43.5622937,35.2929293 44.1283003,35.2929293 L45.3007426,35.2929293 C45.1188119,34.7878788 44.8964521,34.1616162 44.6538779,33.4343434 C44.4921617,32.9090909 44.775165,32.3434343 45.3007426,32.1616162 C45.8263201,32 46.3923267,32.2828283 46.5742574,32.8080808 C47.1806931,34.6868687 47.7062706,35.8787879 47.7062706,35.8989899 C47.8477723,36.2020202 47.8275578,36.5656566 47.6254125,36.8686869 C47.4232673,37.1717172 47.140264,37.3131313 46.7966172,37.3131313 Z M27.9566832,37.3131313 L3.69925743,37.3131313 C3.13325083,37.3131313 2.68853135,36.8686869 2.68853135,36.3030303 C2.68853135,35.7373737 3.13325083,35.2929293 3.69925743,35.2929293 L27.9566832,35.2929293 C28.5226898,35.2929293 28.9674092,35.7373737 28.9674092,36.3030303 C28.9674092,36.8686869 28.5226898,37.3131313 27.9566832,37.3131313 Z M43.8655116,26.2424242 C43.3601485,26.2424242 42.915429,25.8585859 42.8547855,25.3535354 C42.7739274,24.6666667 42.7132838,23.979798 42.6728548,23.2727273 C42.6324257,22.7070707 43.0569307,22.2424242 43.6229373,22.2020202 C44.1687294,22.1818182 44.6538779,22.5858586 44.6943069,23.1515152 C44.734736,23.8181818 44.7953795,24.4646465 44.8762376,25.1111111 C44.9368812,25.6565657 44.5528053,26.1616162 43.9867987,26.2424242 C43.9463696,26.2424242 43.9059406,26.2424242 43.8655116,26.2424242 Z M96.7062706,24.1414141 C96.3221947,24.1414141 95.9785479,23.9393939 95.7966172,23.5757576 C95.5540429,23.0707071 95.2508251,22.4848485 94.8869637,21.8181818 C94.6241749,21.3333333 94.8061056,20.7070707 95.2912541,20.4444444 C95.7764026,20.1818182 96.4030528,20.3636364 96.6658416,20.8484848 C97.0499175,21.5353535 97.3531353,22.1616162 97.6159241,22.6868687 C97.8584983,23.1919192 97.6563531,23.7979798 97.1509901,24.040404 C97.0094884,24.1212121 96.8679868,24.1414141 96.7062706,24.1414141 Z M129.292079,21.6161616 C129.049505,21.6161616 128.786716,21.5151515 128.584571,21.3333333 C124.218234,17.1515152 119.851898,14.6262626 115.586634,13.8181818 C112.675743,13.2727273 110.02764,13.3737374 107.743399,14.1414141 C107.217822,14.3232323 106.631601,14.040404 106.469884,13.4949495 C106.287954,12.969697 106.570957,12.4040404 107.116749,12.2222222 C109.744637,11.3535354 112.736386,11.2121212 115.990924,11.8383838 C120.640264,12.7272727 125.350248,15.4343434 129.999587,19.8787879 C130.403878,20.2626263 130.424092,20.9090909 130.040017,21.3131313 C129.817657,21.4949495 129.554868,21.6161616 129.292079,21.6161616 Z M91.2887789,15.6363636 C90.9855611,15.6363636 90.7025578,15.5151515 90.5004125,15.2525253 C89.2268977,13.6767677 87.8725248,12.2222222 86.4575083,10.9494949 C86.0532178,10.5656566 86.0127888,9.93939394 86.3968647,9.51515152 C86.7809406,9.09090909 87.4075908,9.07070707 87.8320957,9.45454545 C89.3279703,10.8080808 90.7632013,12.3434343 92.0771452,13.979798 C92.4207921,14.4040404 92.3601485,15.0505051 91.915429,15.3939394 C91.7334983,15.5555556 91.5111386,15.6363636 91.2887789,15.6363636 Z M49.8894389,7.91919192 C49.5862211,7.91919192 49.3032178,7.7979798 49.1010726,7.53535354 C48.7574257,7.09090909 48.8180693,6.46464646 49.2627888,6.12121212 C52.3758251,3.61616162 56.6208746,2 61.8362211,1.29292929 C65.8184818,0.747474747 69.6592409,0.888888889 73.2776403,1.6969697 C73.8234323,1.81818182 74.1670792,2.36363636 74.0457921,2.90909091 C73.924505,3.45454545 73.3989274,3.7979798 72.8329208,3.67676768 C69.4368812,2.92929293 65.8386964,2.78787879 62.0990099,3.31313131 C57.2475248,3.97979798 53.3461221,5.45454545 50.5160891,7.71717172 C50.3341584,7.83838384 50.1117987,7.91919192 49.8894389,7.91919192 Z" id="Shape"></path>
                    <path d="M180.57632,46.2222222 L2.95132013,46.1818182 C1.83952145,46.1818182 0.929867987,45.2727273 0.929867987,44.1616162 C0.929867987,43.0505051 1.83952145,42.1414141 2.95132013,42.1414141 L180.57632,42.1818182 C181.688119,42.1818182 182.597772,43.0909091 182.597772,44.2020202 C182.597772,45.3131313 181.688119,46.2222222 180.57632,46.2222222 Z" id="Path"></path>
                </g>
            </g>
            <g id="Group" transform="translate(108.791118, 211.033131)" fill="#EDEDF0" fill-rule="nonzero" opacity="0.5">
                <g>
                    <path d="M410.981436,4.48484848 C411.405941,3.85858586 412.032591,2.72727273 411.405941,2.12121212 C410.880363,1.73737374 410.253713,1.55555556 409.606848,1.5959596 C408.110974,1.63636364 406.655528,2.16161616 405.462871,3.09090909 C402.9967,4.94949495 400.732673,7.91919192 401.217822,9.47474747 C405.604373,8.36363636 409.505776,6.62626263 410.981436,4.48484848 Z" id="Path"></path>
                    <path d="M44.7145215,29.5151515 C52.4768977,29.6969697 60.1179868,27.6363636 66.7281353,23.5757576 C72.7318482,19.8383838 79.7058581,17.959596 86.7809406,18.1212121 C93.8560231,17.9393939 100.830033,19.8383838 106.85396,23.5757576 C120.458333,31.4949495 137.276815,31.4949495 150.881188,23.5757576 C163.292904,16.3030303 178.655941,16.3030303 191.067657,23.5757576 C204.67203,31.4949495 221.490512,31.4949495 235.094884,23.5757576 C247.506601,16.3030303 262.869637,16.3030303 275.281353,23.5757576 C281.891502,27.6363636 289.532591,29.6969697 297.294967,29.5151515 C298.406766,29.5151515 299.316419,28.6060606 299.316419,27.4949495 C299.316419,26.3838384 298.406766,25.4747475 297.294967,25.4747475 C290.19967,25.6565657 283.22566,23.7575758 277.201733,20.020202 C263.59736,12.1010101 246.778878,12.1010101 233.174505,20.020202 C220.762789,27.2929293 205.399752,27.2929293 192.988036,20.020202 C179.383663,12.1010101 162.565182,12.1010101 148.960809,20.020202 C136.549092,27.2727273 121.206271,27.2727273 108.794554,20.020202 C102.184406,15.959596 94.5433168,13.8989899 86.7809406,14.0808081 C79.0185644,13.8989899 71.3774752,15.959596 64.7673267,20.020202 C58.7433993,23.7575758 51.7693894,25.6565657 44.6740924,25.4747475 C37.5787954,25.6565657 30.6047855,23.7575758 24.5808581,20.020202 C17.9707096,15.959596 10.3296205,13.8989899 2.56724422,14.0808081 C1.45544554,14.0808081 0.545792079,14.989899 0.545792079,16.1010101 C0.545792079,17.2121212 1.45544554,18.1212121 2.56724422,18.1212121 C9.66254125,17.9393939 16.6365512,19.8383838 22.6604785,23.5757576 C29.2706271,27.6363636 36.9319307,29.6969697 44.7145215,29.5151515 Z" id="Path"></path>
                    <path d="M425.050743,7.17171717 C424.707096,6.74747475 424.080446,6.66666667 423.635726,7.01010101 C418.076733,10.6868687 411.668729,12.8686869 405.038366,13.3939394 C402.531766,13.7979798 399.984736,13.7979798 397.478135,13.3939394 C401.52104,12.1414141 405.078795,10.3838384 406.675743,8.08080808 C408.697195,5.31313131 407.443894,3.67676768 406.857673,3.11111111 C405.078795,1.39393939 401.157178,1.75757576 398.286716,3.91919192 C396.123762,5.53535354 392.444719,9.31313131 393.273515,12.4040404 C390.07962,13.1313131 386.825083,13.5959596 383.55033,13.7777778 C382.984323,13.7777778 382.539604,14.2222222 382.539604,14.7878788 C382.539604,15.3535354 382.984323,15.7979798 383.55033,15.7979798 C387.188944,15.5959596 390.807343,15.0505051 394.365099,14.2020202 C396.143977,15.6363636 399.701733,16.0606061 405.159653,15.4545455 C417.813944,14.040404 424.50495,8.86868687 424.787954,8.64646465 C425.252888,8.34343434 425.414604,7.71717172 425.111386,7.25252525 C425.091172,7.23232323 425.070957,7.19191919 425.050743,7.17171717 Z M399.479373,5.47474747 C400.67203,4.54545455 402.127475,4.02020202 403.62335,3.97979798 C404.270215,3.93939394 404.896865,4.12121212 405.422442,4.50505051 C406.049092,5.11111111 405.422442,6.24242424 404.997937,6.86868687 C403.522277,9.01010101 399.620875,10.6868687 395.234323,11.8585859 C394.769389,10.2828283 397.013201,7.31313131 399.479373,5.47474747 Z" id="Shape"></path>
                    <path d="M217.346535,16.1414141 C216.740099,16.1414141 216.194307,15.6767677 216.133663,15.0505051 C216.07302,14.3838384 216.558168,13.7979798 217.225248,13.7171717 C219.832921,13.4545455 222.218234,12.9494949 224.482261,12.1414141 C225.108911,11.9191919 225.796205,12.2424242 226.038779,12.8888889 C226.261139,13.5151515 225.937706,14.2222222 225.290842,14.4444444 C222.844884,15.3131313 220.27764,15.8787879 217.467822,16.1414141 C217.427393,16.1414141 217.386964,16.1414141 217.346535,16.1414141 Z" id="Path"></path>
                    <path d="M304.390264,15.8181818 C303.804043,15.8181818 303.29868,15.3939394 303.197607,14.8080808 C303.07632,14.1414141 303.52104,13.5151515 304.188119,13.4141414 C310.27269,12.3636364 314.113449,9.8989899 317.832921,7.51515152 C318.398927,7.15151515 319.146865,7.31313131 319.510726,7.87878788 C319.874587,8.44444444 319.712871,9.19191919 319.146865,9.55555556 C315.407178,11.959596 311.162129,14.6666667 304.592409,15.7979798 C304.531766,15.7979798 304.450908,15.8181818 304.390264,15.8181818 Z" id="Path"></path>
                    <path d="M205.783828,15.7171717 C205.70297,15.7171717 205.642327,15.7171717 205.561469,15.6969697 C199.294967,14.5252525 195.211634,11.9191919 191.290017,9.39393939 L191.108086,9.27272727 C190.542079,8.90909091 190.380363,8.16161616 190.744224,7.5959596 C191.108086,7.03030303 191.856023,6.86868687 192.42203,7.23232323 L192.60396,7.35353535 C196.525578,9.85858586 200.224835,12.2222222 206.026403,13.3131313 C206.693482,13.4343434 207.117987,14.0808081 206.9967,14.7272727 C206.875413,15.3131313 206.37005,15.7171717 205.783828,15.7171717 Z" id="Path"></path>
                    <path d="M374.110149,15.5757576 C374.02929,15.5757576 373.948432,15.5757576 373.867574,15.5555556 C368.025578,14.3232323 364.124175,11.8181818 360.344059,9.41414141 L359.535479,8.90909091 C358.969472,8.54545455 358.807756,7.7979798 359.171617,7.23232323 C359.535479,6.66666667 360.283416,6.50505051 360.849422,6.86868687 L361.658003,7.37373737 C365.417904,9.77777778 368.97566,12.040404 374.393152,13.1919192 C375.040017,13.3333333 375.464521,13.979798 375.32302,14.6262626 C375.181518,15.1919192 374.676155,15.5757576 374.110149,15.5757576 Z" id="Path"></path>
                    <path d="M289.007013,15.4545455 C288.926155,15.4545455 288.825083,15.4343434 288.72401,15.4141414 C288.056931,15.2525253 287.410066,15.0909091 286.783416,14.9090909 C286.136551,14.7070707 285.77269,14.040404 285.974835,13.3939394 C286.17698,12.7474747 286.844059,12.3838384 287.490924,12.5858586 C288.056931,12.7676768 288.663366,12.9292929 289.290017,13.0707071 C289.936881,13.2121212 290.341172,13.8787879 290.19967,14.5252525 C290.058168,15.0707071 289.552805,15.4545455 289.007013,15.4545455 Z" id="Path"></path>
                    <path d="M280.072195,11.8383838 C279.87005,11.8383838 279.64769,11.7777778 279.465759,11.6767677 C278.192244,10.9494949 276.999587,10.1818182 275.786716,9.41414141 C274.816419,8.80808081 273.866337,8.18181818 272.875825,7.5959596 C272.309818,7.25252525 272.107673,6.50505051 272.45132,5.93939394 C272.794967,5.35353535 273.542904,5.17171717 274.108911,5.51515152 C275.119637,6.12121212 276.110149,6.74747475 277.080446,7.37373737 C278.252888,8.12121212 279.42533,8.86868687 280.658416,9.5959596 C281.244637,9.93939394 281.426568,10.6666667 281.103135,11.2525253 C280.90099,11.6161616 280.4967,11.8383838 280.072195,11.8383838 Z" id="Path"></path>
                    <path d="M231.820132,11.0909091 C231.415842,11.0909091 231.011551,10.8888889 230.789191,10.5050505 C230.445545,9.93939394 230.627475,9.19191919 231.193482,8.82828283 C231.739274,8.48484848 232.285066,8.16161616 232.810644,7.81818182 C233.37665,7.45454545 234.124587,7.61616162 234.488449,8.18181818 C234.85231,8.74747475 234.690594,9.49494949 234.124587,9.85858586 C233.578795,10.2020202 233.033003,10.5454545 232.466997,10.8888889 C232.244637,11.0505051 232.042492,11.0909091 231.820132,11.0909091 Z" id="Path"></path>
                    <path d="M328.768977,4.44444444 C328.263614,4.44444444 327.778465,4.12121212 327.616749,3.5959596 C327.414604,2.94949495 327.758251,2.28282828 328.405116,2.06060606 C330.851073,1.27272727 333.418317,0.767676768 336.268564,0.545454545 C336.976073,0.464646465 337.521865,0.98989899 337.582508,1.65656566 C337.643152,2.32323232 337.137789,2.90909091 336.47071,2.96969697 C333.822607,3.17171717 331.437294,3.63636364 329.173267,4.38383838 C329.011551,4.42424242 328.890264,4.44444444 328.768977,4.44444444 Z" id="Path"></path>
                    <path d="M160.422442,4.22222222 C159.896865,4.22222222 159.411716,3.87878788 159.25,3.35353535 C159.068069,2.70707071 159.431931,2.04040404 160.058581,1.83838384 C162.504538,1.11111111 165.091997,0.666666667 167.942244,0.484848485 C168.609323,0.404040404 169.195545,0.949494949 169.235974,1.61616162 C169.276403,2.28282828 168.77104,2.86868687 168.10396,2.90909091 C165.435644,3.07070707 163.030116,3.47474747 160.766089,4.16161616 C160.644802,4.2020202 160.523515,4.22222222 160.422442,4.22222222 Z" id="Path"></path>
                    <path d="M247.405528,3.5959596 C246.839521,3.5959596 246.334158,3.21212121 246.212871,2.62626263 C246.07137,1.97979798 246.495875,1.33333333 247.142739,1.19191919 C249.669554,0.666666667 252.337871,0.404040404 255.32962,0.404040404 C258.119224,0.404040404 260.625825,0.626262626 263.011139,1.09090909 C263.678218,1.21212121 264.102723,1.85858586 263.981436,2.50505051 C263.860149,3.17171717 263.233498,3.5959596 262.566419,3.47474747 C260.342822,3.05050505 257.977723,2.82828283 255.349835,2.82828283 C252.540017,2.82828283 250.013201,3.07070707 247.668317,3.55555556 C247.567244,3.5959596 247.486386,3.5959596 247.405528,3.5959596 Z" id="Path"></path>
                    <path d="M177.665429,3.39393939 C177.604785,3.39393939 177.523927,3.39393939 177.463284,3.37373737 C176.877063,3.27272727 176.250413,3.19191919 175.623762,3.11111111 C174.956683,3.03030303 174.491749,2.42424242 174.552393,1.75757576 C174.633251,1.09090909 175.259901,0.606060606 175.906766,0.686868687 C176.594059,0.767676768 177.240924,0.868686869 177.887789,0.96969697 C178.554868,1.09090909 178.999587,1.71717172 178.8783,2.36363636 C178.757013,2.96969697 178.25165,3.39393939 177.665429,3.39393939 Z" id="Path"></path>
                    <path d="M345.991749,3.27272727 C345.931106,3.27272727 345.870462,3.27272727 345.809818,3.25252525 C345.203383,3.17171717 344.596947,3.09090909 343.950083,3.03030303 C343.283003,2.96969697 342.797855,2.36363636 342.858498,1.6969697 C342.919142,1.03030303 343.505363,0.545454545 344.192657,0.606060606 C344.87995,0.666666667 345.526815,0.747474747 346.17368,0.848484848 C346.840759,0.949494949 347.285479,1.57575758 347.184406,2.22222222 C347.103548,2.84848485 346.57797,3.27272727 345.991749,3.27272727 Z" id="Path"></path>
                </g>
            </g>
            <g id="Group" transform="translate(345.301019, 0.932121)" fill="#EDEDF0" fill-rule="nonzero" opacity="0.5">
                <g>
                    <path d="M2.89067657,42.3030303 L45.9880363,42.3232323 C45.9880363,42.3232323 32.5049505,12.2020202 61.1489274,8.3030303 C86.679868,4.82828283 96.7669142,31.0707071 96.7669142,31.0707071 C96.7669142,31.0707071 99.7990924,15.9393939 114.980198,18.8484848 C129.959158,21.6969697 140.996287,45.7777778 140.996287,45.7777778 L178.534653,45.7777778" id="Path"></path>
                    <path d="M179.282591,38.6868687 L171.176568,38.6868687 C170.610561,38.6868687 170.165842,38.2424242 170.165842,37.6767677 C170.165842,37.1111111 170.610561,36.6666667 171.176568,36.6666667 L179.282591,36.6666667 C179.848597,36.6666667 180.293317,37.1111111 180.293317,37.6767677 C180.293317,38.2222222 179.828383,38.6868687 179.282591,38.6868687 Z M152.983498,38.6666667 L150.962046,38.6666667 C150.39604,38.6666667 149.95132,38.2222222 149.95132,37.6565657 C149.95132,37.0909091 150.39604,36.6464646 150.962046,36.6464646 L152.983498,36.6464646 C153.549505,36.6464646 153.994224,37.0909091 153.994224,37.6565657 C153.994224,38.2222222 153.52929,38.6666667 152.983498,38.6666667 Z M142.876238,38.6666667 L141.744224,38.6666667 C141.360149,38.6666667 141.016502,38.4444444 140.834571,38.1010101 C140.612211,37.6767677 139.783416,36.1010101 138.408828,33.8989899 C138.105611,33.4343434 138.267327,32.8080808 138.732261,32.5050505 C139.197195,32.2020202 139.823845,32.3636364 140.127063,32.8282828 C141.198432,34.5454545 141.94637,35.8989899 142.35066,36.6464646 L142.876238,36.6464646 C143.442244,36.6464646 143.886964,37.0909091 143.886964,37.6565657 C143.886964,38.2222222 143.42203,38.6666667 142.876238,38.6666667 Z M46.7359736,37.4343434 L44.0676568,37.4343434 C43.5016502,37.4343434 43.0569307,36.989899 43.0569307,36.4242424 C43.0569307,35.8585859 43.5016502,35.4141414 44.0676568,35.4141414 L45.240099,35.4141414 C45.0581683,34.9090909 44.8358086,34.2828283 44.5932343,33.5555556 C44.4315182,33.030303 44.7145215,32.4646465 45.240099,32.2828283 C45.7656766,32.1212121 46.3316832,32.4040404 46.5136139,32.9292929 C47.1200495,34.8080808 47.6456271,36 47.6456271,36.020202 C47.7871287,36.3232323 47.7669142,36.6868687 47.564769,36.989899 C47.3626238,37.2929293 47.0796205,37.4343434 46.7359736,37.4343434 Z M27.8960396,37.4343434 L3.63861386,37.4343434 C3.07260726,37.4343434 2.62788779,36.989899 2.62788779,36.4242424 C2.62788779,35.8585859 3.07260726,35.4141414 3.63861386,35.4141414 L27.8960396,35.4141414 C28.4620462,35.4141414 28.9067657,35.8585859 28.9067657,36.4242424 C28.9067657,36.989899 28.4418317,37.4343434 27.8960396,37.4343434 Z M43.804868,26.3636364 C43.299505,26.3636364 42.8547855,25.979798 42.7941419,25.4747475 C42.7132838,24.7878788 42.6526403,24.1010101 42.6122112,23.3939394 C42.5717822,22.8282828 42.9962871,22.3636364 43.5622937,22.3232323 C44.1080858,22.3030303 44.5932343,22.7070707 44.6336634,23.2727273 C44.6740924,23.9393939 44.734736,24.5858586 44.8155941,25.2323232 C44.8762376,25.7777778 44.4921617,26.2828283 43.9261551,26.3636364 C43.8655116,26.3636364 43.8250825,26.3636364 43.804868,26.3636364 Z M96.6456271,24.2626263 C96.2615512,24.2626263 95.9179043,24.0606061 95.7359736,23.6969697 C95.4933993,23.1919192 95.1901815,22.6060606 94.8263201,21.9393939 C94.5635314,21.4545455 94.745462,20.8282828 95.2306106,20.5656566 C95.7157591,20.3030303 96.3424092,20.4848485 96.605198,20.969697 C96.9892739,21.6565657 97.2924917,22.2828283 97.5552805,22.8080808 C97.7978548,23.3131313 97.5957096,23.9191919 97.0903465,24.1616162 C96.9488449,24.2424242 96.7871287,24.2626263 96.6456271,24.2626263 Z M129.231436,21.7373737 C128.988861,21.7373737 128.726073,21.6363636 128.523927,21.4545455 C124.157591,17.2727273 119.791254,14.7474747 115.52599,13.9393939 C112.615099,13.3939394 109.966997,13.4949495 107.682756,14.2626263 C107.157178,14.4444444 106.570957,14.1616162 106.409241,13.6161616 C106.22731,13.0909091 106.510314,12.5252525 107.056106,12.3434343 C109.683993,11.4747475 112.675743,11.3333333 115.930281,11.959596 C120.57962,12.8484848 125.289604,15.5555556 129.938944,20 C130.343234,20.3838384 130.363449,21.030303 129.979373,21.4343434 C129.757013,21.6161616 129.494224,21.7373737 129.231436,21.7373737 Z M91.2281353,15.7575758 C90.9249175,15.7575758 90.6419142,15.6363636 90.439769,15.3737374 C89.1662541,13.7979798 87.8118812,12.3434343 86.3968647,11.0707071 C85.9925743,10.6868687 85.9521452,10.0606061 86.3362211,9.63636364 C86.720297,9.21212121 87.3469472,9.19191919 87.7714521,9.57575758 C89.2673267,10.9292929 90.7025578,12.4646465 92.0165017,14.1010101 C92.3601485,14.5252525 92.299505,15.1717172 91.8547855,15.5151515 C91.6728548,15.6767677 91.450495,15.7575758 91.2281353,15.7575758 Z M49.8085809,8.04040404 C49.505363,8.04040404 49.2223597,7.91919192 49.0202145,7.65656566 C48.6765677,7.21212121 48.7372112,6.58585859 49.1819307,6.24242424 C52.294967,3.73737374 56.5400165,2.12121212 61.755363,1.41414141 C65.7376238,0.868686869 69.5783828,1.01010101 73.1967822,1.81818182 C73.7425743,1.93939394 74.0862211,2.48484848 73.964934,3.03030303 C73.8436469,3.57575758 73.3180693,3.91919192 72.7520627,3.7979798 C69.3560231,3.05050505 65.7578383,2.90909091 62.0181518,3.43434343 C57.1666667,4.1010101 53.265264,5.57575758 50.435231,7.83838384 C50.2533003,7.97979798 50.0309406,8.04040404 49.8085809,8.04040404 Z" id="Shape"></path>
                    <path d="M180.515677,46.3434343 L2.89067657,46.3030303 C1.77887789,46.3030303 0.869224422,45.3939394 0.869224422,44.2828283 C0.869224422,43.1717172 1.77887789,42.2626263 2.89067657,42.2626263 L180.515677,42.3030303 C181.627475,42.3030303 182.537129,43.2121212 182.537129,44.3232323 C182.537129,45.4343434 181.627475,46.3434343 180.515677,46.3434343 Z" id="Path"></path>
                </g>
            </g>
            <g id="Group" transform="translate(248.271316, 265.578586)" fill="#EDEDF0" fill-rule="nonzero" opacity="0.5">
                <g>
                    <g id="Path">
                        <path d="M21.8316832,17.3535354 C29.5940594,17.5353535 37.2351485,15.4747475 43.845297,11.4141414 C56.2570132,4.14141414 71.599835,4.14141414 84.0115512,11.4141414 C97.6159241,19.3131313 114.414191,19.3131313 128.018564,11.4141414 C134.042492,7.67676768 141.016502,5.77777778 148.111799,5.95959596 C149.223597,5.95959596 150.133251,5.05050505 150.133251,3.93939394 C150.133251,2.82828283 149.223597,1.91919192 148.111799,1.91919192 C140.349422,1.73737374 132.708333,3.7979798 126.098185,7.85858586 C113.686469,15.1313131 98.3436469,15.1313131 85.9319307,7.85858586 C72.3275578,-0.0404040404 55.5292904,-0.0404040404 41.9249175,7.85858586 C35.9009901,11.5959596 28.9269802,13.4949495 21.8316832,13.3131313 C15.2821782,13.5151515 8.81353135,11.8787879 3.15346535,8.60606061 C2.5470297,9.81818182 1.81930693,10.969697 1.03094059,12.0606061 C7.33787129,15.7171717 14.5342409,17.5555556 21.8316832,17.3535354 Z"></path>
                        <g transform="translate(52.557756, 16.161616)">
                            <path d="M58.4806106,15.8383838 C57.8943894,15.8383838 57.3890264,15.4141414 57.2879538,14.8282828 C57.1666667,14.1616162 57.6113861,13.5353535 58.2784653,13.4343434 C64.3630363,12.3838384 68.2037954,9.91919192 71.9232673,7.53535354 C72.4892739,7.17171717 73.2372112,7.33333333 73.6010726,7.8989899 C73.964934,8.46464646 73.8032178,9.21212121 73.2372112,9.57575758 C69.4975248,11.979798 65.2524752,14.6868687 58.6827558,15.8181818 C58.6221122,15.8383838 58.5412541,15.8383838 58.4806106,15.8383838 Z"></path>
                            <path d="M43.0973597,15.4747475 C43.0165017,15.4747475 42.915429,15.4545455 42.8143564,15.4343434 C42.1472772,15.2727273 41.5004125,15.1111111 40.8737624,14.9292929 C40.2268977,14.7272727 39.8630363,14.0606061 40.0651815,13.4141414 C40.2673267,12.7676768 40.9344059,12.4040404 41.5812706,12.6060606 C42.1472772,12.7878788 42.7537129,12.9494949 43.380363,13.0909091 C44.0272277,13.2323232 44.4315182,13.8989899 44.2900165,14.5454545 C44.1485149,15.0909091 43.6431518,15.4747475 43.0973597,15.4747475 Z"></path>
                            <path d="M34.1625413,11.8585859 C33.960396,11.8585859 33.7380363,11.7979798 33.5561056,11.6969697 C32.2825908,10.969697 31.089934,10.2020202 29.8770627,9.43434343 C28.9067657,8.82828283 27.9566832,8.2020202 26.9661716,7.61616162 C26.400165,7.27272727 26.1980198,6.52525253 26.5416667,5.95959596 C26.8853135,5.37373737 27.6332508,5.19191919 28.1992574,5.53535354 C29.2099835,6.14141414 30.200495,6.76767677 31.1707921,7.39393939 C32.3432343,8.14141414 33.5156766,8.88888889 34.7487624,9.61616162 C35.3349835,9.95959596 35.5169142,10.6868687 35.1934818,11.2727273 C34.9913366,11.6363636 34.5870462,11.8585859 34.1625413,11.8585859 Z"></path>
                            <path d="M82.8593234,4.46464646 C82.3539604,4.46464646 81.8688119,4.14141414 81.7070957,3.61616162 C81.5049505,2.96969697 81.8485974,2.3030303 82.495462,2.08080808 C84.9414191,1.29292929 87.5086634,0.787878788 90.3589109,0.565656566 C91.0664191,0.484848485 91.6122112,1.01010101 91.6728548,1.67676768 C91.7334983,2.34343434 91.2281353,2.92929293 90.5610561,2.98989899 C87.9129538,3.19191919 85.5276403,3.65656566 83.2636139,4.4040404 C83.1018977,4.44444444 82.9806106,4.46464646 82.8593234,4.46464646 Z"></path>
                            <path d="M1.49587459,3.61616162 C0.929867987,3.61616162 0.42450495,3.23232323 0.303217822,2.64646465 C0.161716172,2 0.586221122,1.35353535 1.23308581,1.21212121 C3.75990099,0.686868687 6.42821782,0.424242424 9.419967,0.424242424 C12.209571,0.424242424 14.7161716,0.646464646 17.1014851,1.11111111 C17.7685644,1.23232323 18.1930693,1.87878788 18.0717822,2.52525253 C17.950495,3.19191919 17.3238449,3.61616162 16.6567657,3.49494949 C14.4331683,3.07070707 12.0680693,2.84848485 9.44018152,2.84848485 C6.63036304,2.84848485 4.10354785,3.09090909 1.75866337,3.57575758 C1.65759076,3.61616162 1.57673267,3.61616162 1.49587459,3.61616162 Z"></path>
                            <path d="M100.082096,3.29292929 C100.021452,3.29292929 99.9608086,3.29292929 99.900165,3.27272727 C99.2937294,3.19191919 98.6872937,3.11111111 98.040429,3.05050505 C97.3733498,2.98989899 96.8882013,2.38383838 96.9488449,1.71717172 C97.0094884,1.05050505 97.5957096,0.565656566 98.2830033,0.626262626 C98.970297,0.686868687 99.6171617,0.767676768 100.264026,0.868686869 C100.931106,0.96969697 101.375825,1.5959596 101.274752,2.24242424 C101.193894,2.86868687 100.668317,3.29292929 100.082096,3.29292929 Z"></path>
                        </g>
                    </g>
                    <path d="M203.095297,10.6464646 C202.75165,10.2222222 202.125,10.1414141 201.680281,10.4848485 C196.121287,14.1616162 189.713284,16.3434343 183.082921,16.8686869 C180.57632,17.2727273 178.02929,17.2727273 175.52269,16.8686869 C179.565594,15.6161616 183.12335,13.8585859 184.720297,11.5555556 C186.741749,8.78787879 185.488449,7.15151515 184.902228,6.58585859 C183.12335,4.86868687 179.201733,5.23232323 176.331271,7.39393939 C174.168317,9.01010101 170.489274,12.7878788 171.318069,15.8787879 C168.124175,16.6060606 164.869637,17.0707071 161.594884,17.2525253 C161.028878,17.2525253 160.584158,17.6969697 160.584158,18.2626263 C160.584158,18.8282828 161.028878,19.2727273 161.594884,19.2727273 C165.233498,19.0707071 168.851898,18.5252525 172.409653,17.6767677 C174.188531,19.1111111 177.746287,19.5353535 183.204208,18.9292929 C195.858498,17.5151515 202.549505,12.3434343 202.832508,12.1212121 C203.297442,11.8181818 203.459158,11.1919192 203.155941,10.7272727 C203.135726,10.7070707 203.115512,10.6868687 203.095297,10.6464646 Z M177.523927,8.94949495 C178.716584,8.02020202 180.17203,7.49494949 181.667904,7.45454545 C182.314769,7.41414141 182.941419,7.5959596 183.466997,7.97979798 C184.093647,8.58585859 183.466997,9.71717172 183.042492,10.3434343 C181.566832,12.4848485 177.665429,14.1616162 173.278878,15.3333333 C172.813944,13.7575758 175.057756,10.7878788 177.523927,8.94949495 Z" id="Shape"></path>
                </g>
            </g>
            <g id="Group" transform="translate(133.048544, 61.538182)">
                <path d="M48.7776403,148.464646 L4.7099835,131.636364 C1.11179868,130.262626 -0.707508251,126.222222 0.667079208,122.606061 L23.8127063,62.1010101 C25.1872937,58.4848485 29.2504125,56.6868687 32.8485974,58.0606061 L60.2999175,68.5454545 C62.0383663,69.2121212 63.4331683,70.5252525 64.1811056,72.2222222 L74.470297,95.1111111 C75.2384488,96.8080808 75.2788779,98.7474747 74.6320132,100.484848 L57.8337459,144.424242 C56.4389439,148.020202 52.3960396,149.838384 48.7776403,148.464646 Z" id="Path" fill="#02BEE3" fill-rule="nonzero"></path>
                <g transform="translate(18.193069, 50.505051)">
                    <path d="M43.8250825,56 C43.339934,54.9494949 42.4909241,54.1414141 41.3993399,53.7373737 C40.3077558,53.3333333 39.1353135,53.3737374 38.0841584,53.8383838 L24.459571,60 L44.5123762,6.80808081 C45.3613861,4.56565657 44.2293729,2.08080808 41.9855611,1.23232323 C39.7417492,0.383838384 37.255363,1.51515152 36.4063531,3.75757576 L16.3535479,56.9494949 L10.1881188,43.3333333 C9.7029703,42.2828283 8.8539604,41.4747475 7.76237624,41.0707071 C6.67079208,40.6666667 5.49834983,40.7070707 4.44719472,41.1717172 C3.3960396,41.6565657 2.58745875,42.5050505 2.18316832,43.5959596 C1.77887789,44.6868687 1.81930693,45.8585859 2.28424092,46.9090909 L12.755363,70.040404 C13.2405116,71.0909091 14.0895215,71.8989899 15.1811056,72.3030303 C16.2726898,72.7070707 17.445132,72.6666667 18.4962871,72.2020202 L41.6419142,61.7373737 C42.6930693,61.2525253 43.5016502,60.4040404 43.9059406,59.3131313 C44.3304455,58.2424242 44.2900165,57.0707071 43.8250825,56 Z" id="XMLID_2_" fill="#0060DF" fill-rule="nonzero"></path>
                    <g id="Clipped">
                        <mask id="mask-2" fill="white">
                            <use xlink:href="#path-1"></use>
                        </mask>
                        <g id="Path"></g>
                        <polygon id="Path" fill="url(#linearGradient-3)" fill-rule="nonzero" mask="url(#mask-2)" points="25.5107261 22.1616162 44.1889439 39.6969697 55.8527228 2.42424242 32.2623762 -12.989899"></polygon>
                    </g>
                </g>
                <path d="M107.783828,32.3636364 C103.49835,23.0707071 96.7466997,15.3737374 88.3374587,9.93939394 C93.0878713,14.4242424 96.6658416,20.6666667 98.7075083,28.2828283 C101.982261,40.3838384 101.052393,54.5252525 96.099835,68.1212121 C95.7966172,68.9494949 95.2710396,69.6565657 94.6443894,70.1010101 C94.4826733,70.2222222 94.3007426,70.3030303 94.1390264,70.3838384 L105.418729,74.6262626 C106.22731,74.9292929 107.116749,74.8888889 107.884901,74.5454545 C108.673267,74.1818182 109.259488,73.5353535 109.562706,72.7272727 C114.313119,59.4747475 113.686469,45.1515152 107.783828,32.3636364 Z" id="Path" fill="#C54163" fill-rule="nonzero"></path>
                <path d="M23.1658416,40.6666667 C28.4216172,27.1919192 37.0734323,15.9393939 47.5243399,9.01010101 C54.2355611,4.54545455 61.209571,2.22222222 67.880363,2.08080808 C57.7326733,0.424242424 47.3221947,1.73737374 37.720297,6 C24.8436469,11.7171717 14.9183168,22.0606061 9.74339934,35.1515152 C9.419967,35.9393939 9.44018152,36.8484848 9.8040429,37.6161616 C10.1476898,38.4040404 10.7945545,39.010101 11.6031353,39.3131313 L23.1860561,43.6767677 C23.105198,43.5151515 23.0243399,43.3333333 22.9839109,43.1313131 C22.7615512,42.3636364 22.8424092,41.4747475 23.1658416,40.6666667 Z" id="Path" fill="#F97A8E" fill-rule="nonzero"></path>
                <path d="M96.099835,68.1212121 C101.052393,54.5252525 101.982261,40.3636364 98.7075083,28.2828283 C96.6456271,20.6868687 93.0878713,14.4444444 88.3374587,9.93939394 C85.6893564,8.24242424 82.879538,6.74747475 79.9282178,5.51515152 C82.5561056,8.28282828 83.7285479,14.2424242 83.2029703,22.7676768 C82.5763201,33.2323232 79.4834983,46.3838384 74.5107261,59.7575758 C74.2075083,60.5656566 73.8234323,61.3131313 73.4191419,61.8383838 C73.2372112,62.0808081 73.0552805,62.2626263 72.8733498,62.3838384 L94.1188119,70.3838384 C94.3007426,70.3232323 94.4624587,70.2222222 94.6241749,70.1010101 C95.2710396,69.6767677 95.7966172,68.9494949 96.099835,68.1212121 Z" id="Path" fill="#D61E46" fill-rule="nonzero"></path>
                <path d="M43.0973597,50.4040404 C43.1377888,49.7575758 43.339934,48.9292929 43.6431518,48.1212121 C48.7372112,34.7878788 55.084571,22.8888889 61.5330033,14.6060606 C66.7281353,7.91919192 71.4987624,4.22222222 75.2788779,3.81818182 C72.8329208,3.05050505 70.3667492,2.46464646 67.8601485,2.06060606 C61.1893564,2.2020202 54.2153465,4.54545455 47.5041254,8.98989899 C37.0532178,15.9191919 28.4014026,27.1717172 23.1456271,40.6464646 C22.8221947,41.4747475 22.7615512,42.3434343 22.9434818,43.0909091 C22.9839109,43.2929293 23.064769,43.4747475 23.1456271,43.6363636 L43.1175743,51.1515152 C43.0771452,50.989899 43.0569307,50.7272727 43.0973597,50.4040404 Z" id="Path" fill="#F74F69" fill-rule="nonzero"></path>
                <path d="M75.2788779,3.83838384 C71.4785479,4.22222222 66.7281353,7.93939394 61.5330033,14.6262626 C55.084571,22.9090909 48.7372112,34.8080808 43.6431518,48.1414141 C43.339934,48.9494949 43.1377888,49.7777778 43.0973597,50.4242424 C43.0771452,50.7272727 43.0973597,50.989899 43.1377888,51.1919192 L72.8733498,62.3838384 C73.035066,62.2626263 73.2169967,62.0808081 73.4191419,61.8383838 C73.8032178,61.3333333 74.2075083,60.5656566 74.5107261,59.7575758 C79.4834983,46.3838384 82.5763201,33.2525253 83.2029703,22.7676768 C83.7285479,14.2626263 82.5561056,8.28282828 79.9282178,5.51515152 C79.3419967,5.27272727 78.7557756,5.03030303 78.1695545,4.80808081 C77.1992574,4.46464646 76.2491749,4.14141414 75.2788779,3.83838384 Z" id="Path" fill="#F52243" fill-rule="nonzero"></path>
            </g>
            <path d="M371.296894,33.5381818 C363.170656,34.3664646 352.942108,42.3260606 341.824121,56.6492929 C328.017603,74.4068687 314.41323,99.9220202 303.477174,128.487677 C302.810095,130.225051 302.38559,131.982626 302.284517,133.376566 C302.244088,134.043232 302.284517,134.588687 302.38559,135.012929 L366.142191,159.012929 C366.506052,158.770505 366.890128,158.386667 367.294418,157.861414 C368.143428,156.750303 368.972224,155.154343 369.619088,153.396768 C380.272141,124.730101 386.88229,96.5886869 388.256877,74.1240404 C389.368676,55.8816162 386.88229,43.0937374 381.242438,37.1543434 C379.989138,36.6290909 378.735837,36.1038384 377.462323,35.6189899 C375.420656,34.8715152 373.358775,34.1846465 371.296894,33.5381818 Z" id="Path" fill="url(#linearGradient-4)" fill-rule="nonzero"></path>
            <g id="Group" transform="translate(209.863725, 27.194747)">
                <path d="M104.650578,316.323232 L10.1881188,280.242424 C2.46617162,277.292929 -1.4150165,268.626263 1.53630363,260.909091 L51.1225248,131.212121 C54.0738449,123.474747 62.7660891,119.59596 70.5082508,122.545455 L129.332508,145.010101 C133.05198,146.424242 136.043729,149.252525 137.681106,152.888889 L159.714934,201.959596 C161.35231,205.59596 161.473597,209.737374 160.038366,213.454545 L124.016089,307.636364 C121.064769,315.414141 112.392739,319.292929 104.650578,316.323232 Z" id="Path" fill="#02BEE3" fill-rule="nonzero"></path>
                <g transform="translate(42.450495, 107.070707)">
                    <path d="M90.5408416,119.353535 C89.509901,117.090909 87.6703795,115.373737 85.3659241,114.505051 C83.0412541,113.636364 80.5144389,113.717172 78.2706271,114.727273 L49.0808581,127.939394 L92.0569307,13.9393939 C93.8560231,9.15151515 91.4302805,3.7979798 86.6394389,1.97979798 C81.8485974,0.181818182 76.4917492,2.60606061 74.6724422,7.39393939 L31.6963696,121.393939 L18.4760726,92.2222222 C17.445132,89.959596 15.6056106,88.2424242 13.3011551,87.3737374 C10.9764851,86.5050505 8.44966997,86.5858586 6.20585809,87.5959596 C3.94183168,88.6262626 2.22359736,90.4646465 1.35437294,92.7676768 C0.485148515,95.0909091 0.566006601,97.6161616 1.57673267,99.8585859 L24.035066,149.434343 C25.0660066,151.69697 26.9055281,153.414141 29.2099835,154.282828 C31.5346535,155.151515 34.0614686,155.070707 36.3052805,154.060606 L85.9117162,131.616162 C88.1757426,130.585859 89.8939769,128.747475 90.7632013,126.444444 C91.6324257,124.141414 91.5515677,121.616162 90.5408416,119.353535 Z" id="XMLID_1_" fill="#0060DF" fill-rule="nonzero"></path>
                    <g id="Clipped">
                        <mask id="mask-6" fill="white">
                            <use xlink:href="#path-5"></use>
                        </mask>
                        <g id="Path"></g>
                        <polygon id="Path" fill="url(#linearGradient-7)" fill-rule="nonzero" mask="url(#mask-6)" points="51.32467 46.7878788 91.3292079 84.4040404 116.354785 4.50505051 65.7780528 -28.5050505"></polygon>
                    </g>
                </g>
                <path d="M231.092409,67.4949495 C221.894802,47.5757576 207.461634,31.0707071 189.410066,19.4545455 C199.598185,29.0909091 207.239274,42.4646465 211.64604,58.7474747 C218.660479,84.6666667 216.679455,115.010101 206.046617,144.141414 C205.399752,145.919192 204.267739,147.434343 202.913366,148.363636 C202.549505,148.606061 202.185644,148.808081 201.821782,148.949495 L226.018564,158.060606 C227.736799,158.707071 229.657178,158.646465 231.314769,157.878788 C232.992574,157.111111 234.266089,155.69697 234.892739,153.959596 C245.101073,125.616162 243.7467,94.8888889 231.092409,67.4949495 Z" id="Path" fill="#C54163" fill-rule="nonzero"></path>
                <path d="M49.7277228,85.2929293 C60.9872112,56.3838384 79.5239274,32.2828283 101.921617,17.4343434 C116.314356,7.87878788 131.252888,2.88888889 145.564769,2.56565657 C123.813944,-0.98989899 101.476898,1.81818182 80.8985149,10.9494949 C53.3056931,23.1919192 32.019802,45.3737374 20.9422442,73.4141414 C20.275165,75.1313131 20.3155941,77.030303 21.0433168,78.7070707 C21.7912541,80.3838384 23.1860561,81.6969697 24.9042904,82.3434343 L49.7277228,91.6969697 C49.5457921,91.3333333 49.4042904,90.9494949 49.2830033,90.5252525 C48.8787129,88.9292929 49.040429,87.0505051 49.7277228,85.2929293 Z" id="Path" fill="#F97A8E" fill-rule="nonzero"></path>
                <path d="M206.066832,144.161616 C216.679455,115.010101 218.680693,84.6868687 211.666254,58.7676768 C207.259488,42.4848485 199.618399,29.1111111 189.430281,19.4747475 C183.75,15.8181818 177.726073,12.6464646 171.398927,10 C177.058993,15.9191919 179.525165,28.7070707 178.413366,46.969697 C177.058993,69.4141414 170.42863,97.5757576 159.775578,126.242424 C159.128713,128 158.279703,129.59596 157.450908,130.707071 C157.046617,131.232323 156.662541,131.616162 156.29868,131.858586 L201.841997,149.010101 C202.205858,148.868687 202.589934,148.666667 202.933581,148.424242 C204.287954,147.454545 205.419967,145.939394 206.066832,144.161616 Z" id="Path" fill="#D61E46" fill-rule="nonzero"></path>
                <path d="M92.4410066,106.181818 C92.5420792,104.808081 92.9665842,103.030303 93.6336634,101.292929 C104.549505,72.7272727 118.174092,47.2121212 131.980611,29.4545455 C143.118812,15.1313131 153.327145,7.17171717 161.453383,6.34343434 C156.217822,4.70707071 150.901403,3.43434343 145.564769,2.56565657 C131.252888,2.88888889 116.314356,7.87878788 101.921617,17.4343434 C79.5239274,32.2828283 61.0074257,56.3838384 49.7277228,85.2929293 C49.040429,87.0505051 48.8787129,88.9494949 49.2830033,90.5454545 C49.3840759,90.969697 49.5457921,91.3535354 49.7277228,91.7171717 L92.5420792,107.838384 C92.4207921,107.393939 92.380363,106.848485 92.4410066,106.181818 Z" id="Path" fill="#F74F69" fill-rule="nonzero"></path>
                <path d="M161.433168,6.34343434 C153.306931,7.17171717 143.078383,15.1313131 131.960396,29.4545455 C118.153878,47.2121212 104.549505,72.7272727 93.6134488,101.292929 C92.9463696,103.030303 92.5218647,104.787879 92.4207921,106.181818 C92.380363,106.848485 92.4207921,107.393939 92.5218647,107.818182 L156.278465,131.818182 C156.642327,131.575758 157.026403,131.191919 157.430693,130.666667 C158.279703,129.555556 159.108498,127.959596 159.755363,126.20202 C170.408416,97.5353535 177.018564,69.3939394 178.393152,46.9292929 C179.50495,28.6868687 177.018564,15.8989899 171.378713,9.95959596 C170.125413,9.43434343 168.872112,8.90909091 167.598597,8.42424242 C165.556931,7.67676768 163.49505,6.98989899 161.433168,6.34343434 Z" id="Path" fill="#F52243" fill-rule="nonzero"></path>
            </g>
            <g id="Group" transform="translate(420.094748, 233.255354)">
                <path d="M25.4096535,73.4343434 L3.51732673,65.0707071 C1.71823432,64.3838384 0.82879538,62.3838384 1.51608911,60.5858586 L13.0181518,30.5252525 C13.7054455,28.7272727 15.7066832,27.8383838 17.5057756,28.5252525 L31.1505776,33.7373737 C32.019802,34.0606061 32.7070957,34.7272727 33.0911716,35.5555556 L38.2054455,46.9292929 C38.5895215,47.7777778 38.609736,48.7272727 38.2863036,49.5959596 L29.9377063,71.4343434 C29.230198,73.2121212 27.2087459,74.1212121 25.4096535,73.4343434 Z" id="Path" fill="#02BEE3" fill-rule="nonzero"></path>
                <g transform="translate(10.107261, 24.242424)">
                    <path d="M21.8923267,28.3434343 C21.6497525,27.8181818 21.2252475,27.4141414 20.69967,27.2121212 C20.1538779,27.010101 19.5676568,27.030303 19.0622937,27.2727273 L12.290429,30.3434343 L22.2561881,3.91919192 C22.6806931,2.80808081 22.1146865,1.57575758 21.0028878,1.15151515 C19.8910891,0.727272727 18.6580033,1.29292929 18.2334983,2.4040404 L8.26773927,28.8282828 L5.19513201,22.0606061 C4.95255776,21.5353535 4.52805281,21.1313131 4.00247525,20.9292929 C3.45668317,20.7272727 2.87046205,20.7474747 2.36509901,20.989899 C1.83952145,21.2323232 1.43523102,21.6565657 1.23308581,22.1818182 C1.03094059,22.7272727 1.05115512,23.3131313 1.29372937,23.8181818 L6.50907591,35.3131313 C6.75165017,35.8383838 7.17615512,36.2424242 7.70173267,36.4444444 C8.22731023,36.6464646 8.83374587,36.6262626 9.33910891,36.3838384 L20.8411716,31.1717172 C21.3667492,30.9292929 21.7710396,30.5050505 21.9731848,29.979798 C22.134901,29.4545455 22.1146865,28.8686869 21.8923267,28.3434343 Z" id="XMLID_3_" fill="#0060DF" fill-rule="nonzero"></path>
                    <g id="Clipped">
                        <mask id="mask-9" fill="white">
                            <use xlink:href="#path-8"></use>
                        </mask>
                        <g id="Path"></g>
                        <polygon id="Path" fill="url(#linearGradient-10)" fill-rule="nonzero" mask="url(#mask-9)" points="12.7957921 11.5151515 22.0742574 20.2424242 27.8758251 1.71717172 16.1311881 -5.93939394"></polygon>
                    </g>
                </g>
                <path d="M54.7409241,15.7373737 C52.5981848,11.1111111 49.2627888,7.29292929 45.0783828,4.60606061 C47.4434818,6.84848485 49.2223597,9.93939394 50.2330858,13.7171717 C51.8502475,19.7373737 51.4055281,26.7676768 48.9393564,33.5151515 C48.7978548,33.9191919 48.535066,34.2828283 48.2116337,34.5050505 C48.1307756,34.5656566 48.0499175,34.6060606 47.9488449,34.6464646 L53.5482673,36.7676768 C53.9525578,36.9090909 54.3972772,36.9090909 54.7813531,36.7272727 C55.165429,36.5454545 55.4686469,36.2222222 55.6101485,35.8181818 C57.9752475,29.2121212 57.6720297,22.0808081 54.7409241,15.7373737 Z" id="Path" fill="#C54163" fill-rule="nonzero"></path>
                <path d="M12.6947195,19.8585859 C15.3023927,13.1515152 19.6080858,7.57575758 24.8032178,4.12121212 C28.1386139,1.8989899 31.595297,0.747474747 34.9306931,0.666666667 C29.8972772,-0.161616162 24.7021452,0.484848485 19.9315182,2.60606061 C13.5437294,5.43434343 8.59117162,10.5858586 6.02392739,17.0909091 C5.86221122,17.4949495 5.88242574,17.9393939 6.04414191,18.3232323 C6.22607261,18.7070707 6.52929043,19.010101 6.93358086,19.1717172 L12.6947195,21.3333333 C12.6542904,21.2525253 12.6138614,21.1515152 12.5936469,21.0707071 C12.4925743,20.7070707 12.5330033,20.2626263 12.6947195,19.8585859 Z" id="Path" fill="#F97A8E" fill-rule="nonzero"></path>
                <path d="M48.9393564,33.5151515 C51.4055281,26.7676768 51.870462,19.7171717 50.2330858,13.7171717 C49.2021452,9.93939394 47.4434818,6.84848485 45.0783828,4.60606061 C43.7644389,3.75757576 42.369637,3.03030303 40.8939769,2.4040404 C42.2079208,3.77777778 42.7739274,6.74747475 42.5111386,10.969697 C42.1877063,16.1818182 40.6716172,22.7070707 38.185231,29.3535354 C38.0437294,29.7575758 37.8415842,30.1212121 37.6394389,30.3838384 C37.5383663,30.5050505 37.4575083,30.6060606 37.3766502,30.6464646 L47.9286304,34.6262626 C48.0094884,34.5858586 48.0903465,34.5454545 48.1914191,34.4848485 C48.5148515,34.2828283 48.7776403,33.9191919 48.9393564,33.5151515 Z" id="Path" fill="#D61E46" fill-rule="nonzero"></path>
                <path d="M22.5796205,24.7070707 C22.599835,24.3838384 22.7009076,23.979798 22.8626238,23.5757576 C25.3894389,16.9494949 28.5429043,11.030303 31.7570132,6.92929293 C34.3444719,3.61616162 36.709571,1.75757576 38.5895215,1.57575758 C37.3766502,1.19191919 36.1435644,0.909090909 34.9104785,0.707070707 C31.595297,0.787878788 28.1386139,1.93939394 24.7830033,4.16161616 C19.5878713,7.5959596 15.3023927,13.1919192 12.674505,19.8989899 C12.5127888,20.3030303 12.4723597,20.7474747 12.5734323,21.1111111 C12.5936469,21.2121212 12.6340759,21.2929293 12.674505,21.3737374 L22.599835,25.1111111 C22.5796205,24.989899 22.5796205,24.8686869 22.5796205,24.7070707 Z" id="Path" fill="#F74F69" fill-rule="nonzero"></path>
                <path d="M38.5895215,1.55555556 C36.709571,1.75757576 34.3444719,3.5959596 31.7570132,6.90909091 C28.5631188,11.030303 25.4096535,16.9494949 22.8626238,23.5555556 C22.7009076,23.959596 22.599835,24.3636364 22.5796205,24.6868687 C22.5594059,24.8484848 22.5796205,24.969697 22.599835,25.0707071 L37.3766502,30.6464646 C37.4575083,30.5858586 37.5585809,30.5050505 37.6394389,30.3838384 C37.8415842,30.1212121 38.0235149,29.7575758 38.185231,29.3535354 C40.6514026,22.7070707 42.1877063,16.1818182 42.5111386,10.969697 C42.7739274,6.74747475 42.1877063,3.77777778 40.8939769,2.4040404 C40.6109736,2.28282828 40.3077558,2.16161616 40.0247525,2.04040404 C39.539604,1.87878788 39.0544554,1.71717172 38.5895215,1.55555556 Z" id="Path" fill="#F52243" fill-rule="nonzero"></path>
            </g>
            <g id="Group" transform="translate(1.654154, 194.871515)">
                <path d="M55.125,166.707071 L5.43770627,147.737374 C1.37458746,146.181818 -0.667079208,141.636364 0.889438944,137.575758 L26.9661716,69.3535354 C28.5226898,65.2727273 33.0911716,63.2323232 37.1542904,64.8080808 L68.0825083,76.6262626 C70.0433168,77.3737374 71.6200495,78.8686869 72.4690594,80.7676768 L84.0519802,106.585859 C84.9212046,108.505051 84.9818482,110.666667 84.2339109,112.626263 L65.2929043,162.161616 C63.7566007,166.222222 59.1881188,168.262626 55.125,166.707071 Z" id="Path" fill="#02BEE3" fill-rule="nonzero"></path>
                <g transform="translate(22.235974, 56.565657)">
                    <path d="M47.7871287,62.8686869 C47.2413366,61.6767677 46.2710396,60.7676768 45.0581683,60.3232323 C43.845297,59.8585859 42.5111386,59.8989899 41.3184818,60.4444444 L25.9554455,67.3939394 L48.5552805,7.43434343 C49.505363,4.90909091 48.2318482,2.1010101 45.705033,1.15151515 C43.1782178,0.202020202 40.3683993,1.47474747 39.4183168,4 L16.8184818,63.959596 L9.86468647,48.6060606 C9.31889439,47.4141414 8.34859736,46.5050505 7.13572607,46.0606061 C5.92285479,45.5959596 4.58869637,45.6363636 3.3960396,46.1818182 C2.20338284,46.7272727 1.29372937,47.6969697 0.849009901,48.9090909 C0.404290429,50.1212121 0.42450495,51.4545455 0.97029703,52.6464646 L12.7755776,78.7272727 C13.3213696,79.9191919 14.2916667,80.8282828 15.504538,81.2727273 C16.7174092,81.7373737 18.0515677,81.6969697 19.2442244,81.1515152 L45.3411716,69.3535354 C46.5338284,68.8080808 47.4434818,67.8383838 47.8882013,66.6262626 C48.3733498,65.3737374 48.3329208,64.040404 47.7871287,62.8686869 Z" id="XMLID_4_" fill="#0060DF" fill-rule="nonzero"></path>
                    <g id="Clipped">
                        <mask id="mask-12" fill="white">
                            <use xlink:href="#path-11"></use>
                        </mask>
                        <g id="Path"></g>
                        <polygon id="Path" fill="url(#linearGradient-13)" fill-rule="nonzero" mask="url(#mask-12)" points="27.1683168 24.6868687 48.2116337 44.4848485 61.3712871 2.44444444 34.7689769 -14.9090909"></polygon>
                    </g>
                </g>
                <path d="M121.630776,35.8383838 C116.799505,25.3535354 109.198845,16.6868687 99.6980198,10.5656566 C105.054868,15.6363636 109.077558,22.6666667 111.402228,31.2323232 C115.081271,44.8686869 114.05033,60.8282828 108.450908,76.1414141 C108.107261,77.0707071 107.52104,77.8787879 106.793317,78.3636364 C106.611386,78.4848485 106.409241,78.5858586 106.207096,78.6666667 L118.92203,83.4545455 C119.831683,83.7979798 120.822195,83.7575758 121.711634,83.3535354 C122.580858,82.9494949 123.268152,82.2020202 123.591584,81.2929293 C128.988861,66.4040404 128.281353,50.2424242 121.630776,35.8383838 Z" id="Path" fill="#C54163" fill-rule="nonzero"></path>
                <path d="M26.2384488,45.1919192 C32.1613036,30 41.904703,17.3131313 53.689769,9.49494949 C61.2702145,4.46464646 69.1134488,1.83838384 76.6534653,1.67676768 C65.2120462,-0.202020202 53.4674092,1.27272727 42.6526403,6.08080808 C28.1386139,12.5252525 16.939769,24.1818182 11.1179868,38.9292929 C10.7541254,39.8383838 10.7743399,40.8282828 11.1786304,41.7171717 C11.5627063,42.6060606 12.3106436,43.2929293 13.2000825,43.6363636 L26.2586634,48.5454545 C26.1575908,48.3636364 26.0767327,48.1616162 26.0363036,47.9393939 C25.7937294,47.1111111 25.8745875,46.1212121 26.2384488,45.1919192 Z" id="Path" fill="#F97A8E" fill-rule="nonzero"></path>
                <path d="M108.450908,76.1616162 C114.030116,60.8282828 115.081271,44.8888889 111.402228,31.2525253 C109.077558,22.6868687 105.054868,15.6565657 99.6980198,10.5858586 C96.7062706,8.66666667 93.5528053,6.98989899 90.2174092,5.5959596 C93.1889439,8.70707071 94.4826733,15.4343434 93.9166667,25.030303 C93.2091584,36.8282828 89.7120462,51.6363636 84.1126238,66.7272727 C83.7689769,67.6565657 83.3242574,68.4848485 82.879538,69.0707071 C82.6571782,69.3535354 82.455033,69.5555556 82.2731023,69.6767677 L106.22731,78.6868687 C106.429455,78.6060606 106.611386,78.5050505 106.813531,78.3838384 C107.52104,77.8989899 108.107261,77.0909091 108.450908,76.1616162 Z" id="Path" fill="#D61E46" fill-rule="nonzero"></path>
                <path d="M48.6967822,56.1818182 C48.7372112,55.4545455 48.9797855,54.5252525 49.3234323,53.6161616 C55.0643564,38.5858586 62.2405116,25.1717172 69.4975248,15.8383838 C75.359736,8.3030303 80.7367987,4.12121212 85.0020627,3.67676768 C82.2528878,2.80808081 79.4632838,2.14141414 76.6534653,1.67676768 C69.1134488,1.83838384 61.2702145,4.46464646 53.689769,9.49494949 C41.904703,17.3131313 32.1613036,29.979798 26.2384488,45.1919192 C25.8745875,46.1212121 25.7937294,47.1111111 26.0160891,47.959596 C26.0767327,48.1818182 26.1575908,48.3838384 26.2384488,48.5656566 L48.7574257,57.0505051 C48.6967822,56.8282828 48.6765677,56.5454545 48.6967822,56.1818182 Z" id="Path" fill="#F74F69" fill-rule="nonzero"></path>
                <path d="M84.9818482,3.67676768 C80.7165842,4.12121212 75.3395215,8.3030303 69.4773102,15.8383838 C62.220297,25.1717172 55.0643564,38.6060606 49.3032178,53.6161616 C48.959571,54.5252525 48.7372112,55.4545455 48.6765677,56.1818182 C48.6563531,56.5252525 48.6765677,56.8282828 48.7372112,57.030303 L82.2731023,69.6565657 C82.455033,69.5353535 82.6571782,69.3333333 82.879538,69.0505051 C83.3242574,68.4646465 83.7689769,67.6161616 84.1126238,66.7070707 C89.7120462,51.6363636 93.1889439,36.8282828 93.9166667,25.010101 C94.5028878,15.4141414 93.1889439,8.68686869 90.2174092,5.57575758 C89.55033,5.29292929 88.9034653,5.03030303 88.2363861,4.76767677 C87.1650165,4.38383838 86.0734323,4.02020202 84.9818482,3.67676768 Z" id="Path" fill="#F52243" fill-rule="nonzero"></path>
            </g>
        </g>
    </g>
</svg>