<?xml version="1.0" encoding="UTF-8"?>
<svg width="64px" height="64px" viewBox="0 0 64 64" version="1.1" xmlns="http://www.w3.org/2000/svg" xmlns:xlink="http://www.w3.org/1999/xlink">
    <!-- Generator: Sketch 55.2 (78181) - https://sketchapp.com -->
    <title>logo</title>
    <desc>Created with Sketch.</desc>
    <g id="Page-1" stroke="none" stroke-width="1" fill="none" fill-rule="evenodd">
        <g id="logo" fill-rule="nonzero">
            <rect id="Rectangle" fill="#232121" x="0" y="0" width="64" height="64"></rect>
            <path d="M50.2857143,37.4430476 C50.2857143,42.9572063 45.7427302,45.7142857 36.6567619,45.7142857 L27.8186667,45.7142857 C24.6339048,45.7142857 21.1291429,45.6899048 18.4137143,44.519619 C14.9059048,43.0232381 13.7142857,40.3382857 13.7142857,37.5801905 L13.7142857,18.624 C13.7142857,17.5451429 14.1013333,16.8685714 14.8815238,16.5942857 C15.1862857,16.5028571 15.7744762,16.4571429 17.0940952,16.4571429 C18.5020952,16.4571429 19.2,17.1824762 19.2,18.624 L19.2,23.7470476 L36.6293333,23.7470476 C45.7274921,23.7470476 50.2765714,26.4584127 50.2765714,31.8811429 L50.2765714,37.4430476 L50.2857143,37.4430476 Z M44.8,37.3729524 L44.8,31.8872381 C44.8,29.2571429 41.9657143,28.3428571 36.7664762,28.3428571 L21.1321905,28.3428571 C20.6254929,28.3694373 20.1433818,28.5695995 19.7668571,28.9097143 C19.1481905,29.5619048 19.2,29.9337143 19.2,29.9337143 L19.2,37.8270476 C19.3219048,38.503619 19.2700952,40.1767619 21.7752381,40.7771429 C23.5245714,41.216 26.4685714,41.1367619 28.2392381,41.1367619 L36.6354286,41.1367619 C39.207619,41.1367619 41.1733333,41.0453333 41.9230476,40.8655238 C43.84,40.3900952 44.8,39.1253333 44.8,37.3729524 L44.8,37.3729524 Z" id="Shape" fill="#FFFFFF"></path>
        </g>
    </g>
</svg>